<svg xmlns="http://www.w3.org/2000/svg" viewBox="0 0 22 22" x="0px" y="0px"><path fill-rule="evenodd" d="M18,14 L18,13.8888889 C18,13.3366041 18.4477153,12.8888889 19,12.8888889 C19.5522847,12.8888889 20,13.3366041 20,13.8888889 L20,15 C20,15.5522847 19.5522847,16 19,16 L7,16 C6.44771525,16 6,15.5522847 6,15 L6,3 C6,2.44771525 6.44771525,2 7,2 L8,2 C8.55228475,2 9,2.44771525 9,3 C9,3.55228475 8.55228475,4 8,4 L8,14 L18,14 Z M15,18.0048828 L15,17.6666667 C15,17.1143819 15.4477153,16.6666667 16,16.6666667 C16.5522847,16.6666667 17,17.1143819 17,17.6666667 L17,19 C17,19.5522847 16.5522847,20 16,20 L3,20 C2.44771525,20 2,19.5522847 2,19 L2,6 C2,5.44771525 2.44771525,5 3,5 L4.33333333,5 C4.88561808,5 5.33333333,5.44771525 5.33333333,6 C5.33333333,6.55228475 4.88561808,7 4.33333333,7 L4.00268555,7 L4.00268555,18.0048828 L15,18.0048828 Z M16.5857864,4 L14,4 C13.4477153,4 13,3.55228475 13,3 C13,2.44771525 13.4477153,2 14,2 L19,2 C19.2761424,2 19.5261424,2.11192881 19.7071068,2.29289322 C19.8880712,2.47385763 20,2.72385763 20,3 L20,8 C20,8.55228475 19.5522847,9 19,9 C18.4477153,9 18,8.55228475 18,8 L18,5.41421356 L12.8786797,10.5355339 C12.4881554,10.9260582 11.8549904,10.9260582 11.4644661,10.5355339 C11.0739418,10.1450096 11.0739418,9.51184464 11.4644661,9.12132034 L16.5857864,4 Z"></path></svg>